{"title":"Ciara - Sorry {M4A+MP4}(1080p) x264 [VX] [P2PDL]","uid":7682513,"size":47694311,"categoryP":"video","categoryS":"music_videos","magnet":"?xt=urn:btih:47125046c6322ab24a383a92f0028c5b55cb470b&amp;dn=Ciara+-+Sorry+%7BM4A%2BMP4%7D%281080p%29+x264+%5BVX%5D+%5BP2PDL%5D&amp;tr=udp%3A%2F%2Ftracker.openbittorrent.com%3A80&amp;tr=udp%3A%2F%2Fopen.demonii.com%3A1337&amp;tr=udp%3A%2F%2Ftracker.coppersurfer.tk%3A6969&amp;tr=udp%3A%2F%2Fexodus.desync.com%3A6969","seeders":1,"leechers":2,"uploader":"Vitamin_X","files":-1,"time":1348858133,"description":"Music video by Ciara performing Sorry. (C) 2012 Epic Records, a division of Sony Music Entertainment.\n\nThings ain't going too easy for Ciara, lets hear what she has to say.\n\n                          1080p Full HD MP4 Video\n                                     +\n                           96 kbps/VBR M4A Audio\n\nCover: \n &lt;a href=&quot;\nhttp://www.shotpix.com/images/71473102038694766481.jpeg&quot; rel=&quot;nofollow&quot; target=&quot;_NEW&quot;&gt;\nhttp://www.shotpix.com/images/71473102038694766481.jpeg&lt;/a&gt;\n\nSing along!\nEnglish subtitles included.\n\n\n\t\t\t\t\t\n               Details:\n\nGeneral\nComplete name                  : Ciara - Sorry.mp4\nFormat                         : MPEG-4\nFile size                      : 41.5 MiB\nDuration                       : 4mn 41s\nOverall bit rate mode          : Variable\nOverall bit rate               : 1 238 Kbps\n\nVideo\nID                             : 1\nFormat                         : AVC\nFormat/Info                    : Advanced Video Codec\nCodec ID                       : avc1\nCodec ID/Info                  : Advanced Video Coding\nDuration                       : 4mn 41s\nBit rate mode                  : Variable\nBit rate                       : 1 108 Kbps\nMaximum bit rate               : 50.0 Mbps\nWidth                          : 1 920 pixels\nHeight                         : 772 pixels\nDisplay aspect ratio           : 2.487\nFrame rate mode                : Variable\nFrame rate                     : 23.976 fps\nStream size                    : 37.1 MiB (89%)\n\n\n[code]\nAudio\nID                             : 2\nFormat                         : AAC\nFormat/Info                    : Advanced Audio Codec\nFormat profile                 : LC\nCodec ID                       : 40\nDuration                       : 4mn 41s\nBit rate mode                  : Variable\nBit rate                       : 125 Kbps\nMaximum bit rate               : 211 Kbps\nChannel(s)                     : 2 channels\nChannel positions              : Front: L R\nSampling rate                  : 48.0 KHz\nStream size                    : 4.18 MiB (10%)\n\n\n\n\n\n\nScreens:\n\n &lt;a href=&quot;\nhttp://www.shotpix.com/images/98759938781063278404.jpg&quot; rel=&quot;nofollow&quot; target=&quot;_NEW&quot;&gt;\nhttp://www.shotpix.com/images/98759938781063278404.jpg&lt;/a&gt;\n &lt;a href=&quot;\nhttp://www.shotpix.com/images/53310313051389015827.jpg&quot; rel=&quot;nofollow&quot; target=&quot;_NEW&quot;&gt;\nhttp://www.shotpix.com/images/53310313051389015827.jpg&lt;/a&gt;\n\n\n\nThumbs:\n &lt;a href=&quot;\nhttp://www.shotpix.com/images/92737198762116636059.jpg&quot; rel=&quot;nofollow&quot; target=&quot;_NEW&quot;&gt;\nhttp://www.shotpix.com/images/92737198762116636059.jpg&lt;/a&gt;\n\n\n------------------------------------------------------------------------\n\n\nNotes:\n\n* Best played on VLC Media Player.\n* Install shark007 codecs in case of any kind of problem in playback (For non-VLC Media Player users).\n* Alternatively, install Core AVC codecs, the fastest decoder that there is coupled with Community Center Codec Pack and play on Windows Media Player Classic.\n* Read NFO\n* Help in seeding this torrent as much as you can. \n\n\n\nGreets to: VYTO, srkfan, MgB, staff members at ExtraTorrent, TPB,KAT, 1337x, PublicHD, Ahashare,\nSilverTorrent, TorrentMafia, P2PDL, and all others\n\n\nEncoder Notes: Looking For Early Access To Anything You Can Provide DVDScr, R5, DVDRips, BluRay, Direct Audio, Early Music Releases, Seedboxes, Links, Dedicated Servers, Advance / Promo CDs/DVDs. If You Got anything to\noffer contact me at &quot;&lt;a class=&quot;__cf_email__&quot; href=&quot;/cdn-cgi/l/email-protection&quot; data-cfemail=&quot;7e1d11100a1f1d0a3e0a17100713501b0b&quot;&gt;[email&amp;#160;protected]&lt;/a&gt;&lt;script cf-hash='f9e31' type=&quot;text/javascript&quot;&gt;\n/* &lt;![CDATA[ */!function(){try{var t=&quot;currentScript&quot;in document?document.currentScript:function(){for(var t=document.getElementsByTagName(&quot;script&quot;),e=t.length;e--;)if(t[e].getAttribute(&quot;cf-hash&quot;))return t[e]}();if(t&amp;&amp;t.previousSibling){var e,r,n,i,c=t.previousSibling,a=c.getAttribute(&quot;data-cfemail&quot;);if(a){for(e=&quot;&quot;,r=parseInt(a.substr(0,2),16),n=2;a.length-n;n+=2)i=parseInt(a.substr(n,2),16)^r,e+=String.fromCharCode(i);e=document.createTextNode(e),c.parentNode.replaceChild(e,c)}}}catch(u){}}();/* ]]&gt; */&lt;/script&gt;&quot;\n\n                                         Enjoy!","torrent":{"xt":"urn:btih:47125046c6322ab24a383a92f0028c5b55cb470b","amp;dn":"Ciara+-+Sorry+%7BM4A%2BMP4%7D%281080p%29+x264+%5BVX%5D+%5BP2PDL%5D","amp;tr":["udp%3A%2F%2Ftracker.openbittorrent.com%3A80","udp%3A%2F%2Fopen.demonii.com%3A1337","udp%3A%2F%2Ftracker.coppersurfer.tk%3A6969","udp%3A%2F%2Fexodus.desync.com%3A6969"],"infoHash":"47125046c6322ab24a383a92f0028c5b55cb470b","infoHashBuffer":{"type":"Buffer","data":[71,18,80,70,198,50,42,178,74,56,58,146,240,2,140,91,85,203,71,11]},"announce":[],"urlList":[]}}